<svg width="24" height="18" viewBox="0 0 24 18" fill="none" xmlns="http://www.w3.org/2000/svg">
<path d="M1.34306 10.5316L7.16367 16.3506C7.61189 16.8004 8.20988 17.0486 8.84703 17.0486C9.48312 17.0486 10.0811 16.801 10.5309 16.3512C10.9807 15.9013 11.2284 15.3039 11.2284 14.6673C11.2284 14.0306 10.9802 13.4332 10.5309 12.9834L8.92906 11.3815H20.82C22.133 11.3815 23.2014 10.3131 23.2014 9.00013C23.2014 7.6872 22.133 6.61876 20.82 6.61876H8.92959L10.5309 5.01742C10.9813 4.5676 11.2284 3.96961 11.2284 3.33352C11.2284 2.69743 10.9807 2.09891 10.5309 1.64963C10.0816 1.19981 9.48365 0.952148 8.84756 0.952148C8.21147 0.952148 7.61348 1.19981 7.16314 1.6491L1.47377 7.33846C1.342 7.47393 0.849325 8.01212 0.797995 8.86412C0.743486 9.77381 1.23087 10.3956 1.34306 10.5316ZM2.26386 8.04599L7.91195 2.39791C8.41203 1.89888 9.28415 1.89835 9.78212 2.39791C10.033 2.64821 10.17 2.98055 10.17 3.33405C10.17 3.68702 10.0324 4.01936 9.78265 4.26966L6.37358 7.67767H20.82V7.67714C21.5493 7.67714 22.143 8.2709 22.143 9.00013C22.143 9.72989 21.5493 10.3231 20.82 10.3231H6.37411L9.78265 13.7316C10.033 13.982 10.17 14.3138 10.17 14.6673C10.17 15.0208 10.0324 15.3526 9.78265 15.6029C9.2815 16.1035 8.40939 16.1019 7.91248 15.6034L2.212 9.9024C2.14426 9.83308 1.85056 9.51874 1.84051 9.02606C1.82833 8.45665 2.20512 8.09997 2.26386 8.04599Z" fill="white"/>
</svg>
