<svg width="30" height="30" viewBox="0 0 30 30" fill="none" xmlns="http://www.w3.org/2000/svg">
<path d="M25.6569 16.5316L19.8363 22.3506C19.3881 22.8004 18.7901 23.0486 18.153 23.0486C17.5169 23.0486 16.9189 22.801 16.4691 22.3512C16.0193 21.9013 15.7716 21.3039 15.7716 20.6673C15.7716 20.0306 16.0198 19.4332 16.4691 18.9834L18.0709 17.3815H6.17996C4.86703 17.3815 3.79858 16.3131 3.79858 15.0001C3.79858 13.6872 4.86703 12.6188 6.17996 12.6188H18.0704L16.4691 11.0174C16.0187 10.5676 15.7716 9.96961 15.7716 9.33352C15.7716 8.69743 16.0193 8.09891 16.4691 7.64963C16.9184 7.19981 17.5163 6.95215 18.1524 6.95215C18.7885 6.95215 19.3865 7.19981 19.8369 7.6491L25.5262 13.3385C25.658 13.4739 26.1507 14.0121 26.202 14.8641C26.2565 15.7738 25.7691 16.3956 25.6569 16.5316ZM24.7361 14.046L19.0881 8.39791C18.588 7.89888 17.7159 7.89835 17.2179 8.39791C16.967 8.64821 16.83 8.98055 16.83 9.33405C16.83 9.68702 16.9676 10.0194 17.2174 10.2697L20.6264 13.6777H6.17996V13.6771C5.45073 13.6771 4.85697 14.2709 4.85697 15.0001C4.85697 15.7299 5.45073 16.3231 6.17996 16.3231H20.6259L17.2174 19.7316C16.967 19.982 16.83 20.3138 16.83 20.6673C16.83 21.0208 16.9676 21.3526 17.2174 21.6029C17.7185 22.1035 18.5906 22.1019 19.0875 21.6034L24.788 15.9024C24.8557 15.8331 25.1494 15.5187 25.1595 15.0261C25.1717 14.4566 24.7949 14.1 24.7361 14.046Z" fill="white"/>
</svg>
