<svg width="160" height="40" viewBox="0 0 160 40" fill="none" xmlns="http://www.w3.org/2000/svg">
<path d="M20 40C31.0457 40 40 31.0457 40 20C40 8.9543 31.0457 0 20 0C8.9543 0 0 8.9543 0 20C0 31.0457 8.9543 40 20 40Z" fill="#E45128"/>
<path d="M30.067 13.3076C29.4672 13.4907 28.8418 13.6479 28.2155 13.8046C23.771 14.7473 17.8451 12.1884 15.2862 16.3635C13.152 19.6833 12.4782 23.8375 10.0505 26.8059L23.0179 39.7733C31.6484 38.4671 38.4689 31.6455 39.7738 23.0146L30.067 13.3076Z" fill="#E45128"/>
<path d="M26.6913 11.9009H13.3086C10.683 11.9009 8.55458 14.0294 8.55458 16.6549V23.3449C8.55458 25.9706 10.6831 28.099 13.3086 28.099H26.6913C29.3169 28.099 31.4454 25.9705 31.4454 23.3449V16.6549C31.4454 14.0294 29.3168 11.9009 26.6913 11.9009ZM23.4761 20.3254L17.2167 23.3107C17.0498 23.3903 16.8571 23.2688 16.8571 23.0841V16.9267C16.8571 16.7392 17.0549 16.6178 17.2219 16.7025L23.4813 19.8745C23.6677 19.9688 23.6643 20.2357 23.4761 20.3254Z" fill="white"/>
<path d="M26.6913 11.9009H19.8653V18.0419L23.4814 19.8743C23.6677 19.9687 23.6643 20.2356 23.476 20.3253L19.8653 22.0475V28.099H26.6913C29.3169 28.099 31.4453 25.9705 31.4453 23.3449V16.6549C31.4453 14.0294 29.3168 11.9009 26.6913 11.9009Z" fill="white"/>
<path d="M140 40C151.046 40 160 31.0457 160 20C160 8.9543 151.046 0 140 0C128.954 0 120 8.9543 120 20C120 31.0457 128.954 40 140 40Z" fill="#E45128"/>
<path d="M152.407 14.0172C152.586 13.4312 152.407 13 151.548 13H148.705C147.981 13 147.648 13.3703 147.47 13.7828C147.47 13.7828 146.022 17.2094 143.975 19.4312C143.314 20.0734 143.01 20.2797 142.648 20.2797C142.469 20.2797 142.194 20.0734 142.194 19.4875V14.0172C142.194 13.3141 141.992 13 141.393 13H136.924C136.47 13 136.2 13.3281 136.2 13.6328C136.2 14.2984 137.223 14.4531 137.329 16.3281V20.3969C137.329 21.2875 137.165 21.4516 136.803 21.4516C135.838 21.4516 133.492 18.0109 132.102 14.0734C131.822 13.3094 131.547 13 130.818 13H127.975C127.164 13 127 13.3703 127 13.7828C127 14.5141 127.965 18.1469 131.494 22.9469C133.844 26.2234 137.155 28 140.167 28C141.977 28 142.199 27.6063 142.199 26.9266C142.199 23.7953 142.035 23.5 142.942 23.5C143.362 23.5 144.086 23.7063 145.776 25.2859C147.706 27.1609 148.025 28 149.106 28H151.949C152.76 28 153.17 27.6062 152.934 26.8281C152.393 25.1922 148.739 21.8266 148.575 21.6016C148.155 21.0766 148.276 20.8422 148.575 20.3734C148.58 20.3688 152.05 15.625 152.407 14.0172Z" fill="white"/>
<path d="M80 40C91.0457 40 100 31.0457 100 20C100 8.9543 91.0457 0 80 0C68.9543 0 60 8.9543 60 20C60 31.0457 68.9543 40 80 40Z" fill="#E45128"/>
<path d="M80.0001 8.95996C73.9127 8.95996 68.9601 13.9126 68.9601 20C68.9601 21.9008 69.4511 23.7699 70.3823 25.4192L68.9778 30.4304C68.9317 30.595 68.9764 30.7716 69.0954 30.894C69.1871 30.9886 69.3119 31.04 69.4401 31.04C69.4785 31.04 69.5173 31.0352 69.5553 31.026L74.7853 29.7305C76.3823 30.5878 78.1809 31.04 80.0001 31.04C86.0874 31.04 91.0401 26.0873 91.0401 20C91.0401 13.9126 86.0874 8.95996 80.0001 8.95996ZM85.5537 23.8956C85.3175 24.5494 84.1847 25.146 83.6404 25.2262C83.1517 25.2977 82.5335 25.3284 81.8548 25.1153C81.4434 24.9857 80.9154 24.8139 80.2391 24.5254C77.3961 23.3129 75.5394 20.4862 75.3973 20.2995C75.2557 20.1128 74.2401 18.7822 74.2401 17.4051C74.2401 16.028 74.9721 15.3507 75.2322 15.0704C75.4924 14.79 75.7991 14.72 75.9882 14.72C76.1773 14.72 76.366 14.7224 76.5316 14.73C76.7058 14.7387 76.9396 14.6643 77.1695 15.2105C77.4057 15.7712 77.9725 17.1483 78.0426 17.2889C78.1137 17.4291 78.1607 17.5928 78.0666 17.7795C77.9725 17.9662 77.9255 18.0828 77.7834 18.2465C77.6413 18.4102 77.4858 18.6113 77.3581 18.7371C77.2161 18.8768 77.0687 19.028 77.2338 19.3083C77.3989 19.5886 77.9677 20.5049 78.8106 21.247C79.893 22.2003 80.8065 22.496 81.0897 22.6361C81.3729 22.7763 81.5385 22.7528 81.7036 22.566C81.8687 22.3788 82.4121 21.7486 82.6007 21.4688C82.7893 21.1889 82.9785 21.235 83.2386 21.3286C83.4988 21.4217 84.8922 22.0985 85.1754 22.2387C85.4586 22.3788 85.6477 22.4489 85.7188 22.5656C85.7898 22.6817 85.7898 23.2424 85.5537 23.8956Z" fill="white"/>
</svg>
