<svg width="30" height="30" viewBox="0 0 30 30" fill="none" xmlns="http://www.w3.org/2000/svg">
<path d="M15 0.625C7.125 0.625 0.625 7.125 0.625 15C0.625 18 1.5 20.75 3.125 23.125L1.5 28C1.375 28.25 1.5 28.5 1.625 28.625C1.875 28.75 2.125 28.875 2.375 28.75L7.375 27.125C9.625 28.625 12.375 29.375 15 29.375C22.875 29.375 29.375 22.875 29.375 15C29.375 7.125 22.875 0.625 15 0.625ZM23.625 20.875C23.25 22 21.75 23 20.5 23.25C20.25 23.25 20 23.375 19.625 23.375C18.625 23.375 17.375 23 15.375 22.25C12.875 21.25 10.375 19 8.375 16.125L8.25 16C7.5 15 6.375 13.25 6.375 11.375C6.375 9.25 7.5 8.125 7.875 7.625C8.375 7.125 9 6.875 9.75 6.875C9.875 6.875 10 6.875 10.125 6.875H10.25C10.875 6.875 11.25 7.125 11.625 7.875L11.875 8.375C12.25 9.25 12.75 10.625 12.875 10.875C13.125 11.375 13.125 11.75 12.875 12.125C12.75 12.375 12.625 12.625 12.375 12.875C12.25 13 12.125 13.125 12.125 13.25C12 13.375 11.875 13.5 11.75 13.625C11.75 13.75 11.75 13.75 11.75 13.75C12.125 14.375 12.875 15.5 13.875 16.375C15.25 17.625 16.25 18 16.75 18.25H16.875C17 18.25 17.125 18.375 17.125 18.25C17.375 18 17.625 17.5 18 17.125L18.125 17C18.5 16.5 19 16.375 19.25 16.375C19.375 16.375 19.625 16.375 19.75 16.5C19.875 16.5 20.125 16.625 22.5 17.875L22.75 18C23.125 18.125 23.375 18.25 23.5 18.625C24 18.875 23.875 20 23.625 20.875Z" fill="#E45128"/>
</svg>
