<svg width="30" height="30" viewBox="0 0 30 30" fill="none" xmlns="http://www.w3.org/2000/svg">
<path d="M15.0001 0C9.48617 0 5.00006 4.48611 5.00006 10C5.00006 11.6553 5.41391 13.2965 6.20065 14.7522L14.4532 29.6777C14.5631 29.8767 14.7724 30 15.0001 30C15.2277 30 15.4371 29.8767 15.5469 29.6777L23.8026 14.7473C24.5863 13.2965 25.0001 11.6552 25.0001 9.99996C25.0001 4.48611 20.514 0 15.0001 0ZM15.0001 15C12.2431 15 10.0001 12.757 10.0001 10C10.0001 7.24307 12.2431 5.00004 15.0001 5.00004C17.757 5.00004 20.0001 7.24307 20.0001 10C20.0001 12.757 17.757 15 15.0001 15Z" fill="#E45128"/>
</svg>
