<svg width="136" height="30" viewBox="0 0 136 30" fill="none" xmlns="http://www.w3.org/2000/svg">
<path d="M68 30C59.717 30 53 23.283 53 15C53 6.717 59.717 0 68 0C76.283 0 83 6.717 83 15C83 23.283 76.283 30 68 30Z" fill="#5B5B5B"/>
<path d="M77.546 10.173C77.318 9.30898 76.643 8.63098 75.785 8.39998C74.231 7.97998 68.003 7.97998 68.003 7.97998C68.003 7.97998 61.772 7.97998 60.221 8.39998C59.363 8.63098 58.688 9.30898 58.46 10.173C58.04 11.736 58.04 15 58.04 15C58.04 15 58.04 18.264 58.457 19.827C58.685 20.691 59.36 21.369 60.218 21.6C61.772 22.02 68 22.02 68 22.02C68 22.02 74.231 22.02 75.782 21.6C76.64 21.369 77.315 20.691 77.543 19.827C77.96 18.264 77.96 15 77.96 15C77.96 15 77.96 11.736 77.546 10.173ZM65.963 17.961V12.039L71.168 15L65.963 17.961Z" fill="white"/>
<g clip-path="url(#clip0_156_2)">
<path d="M136 15C136 23.2843 129.284 30 121 30C112.716 30 106 23.2843 106 15C106 6.71573 112.716 0 121 0C129.284 0 136 6.71573 136 15V15Z" fill="#5B5B5B"/>
<path d="M127.367 5.21868C127.22 5.22039 127.064 5.22463 126.905 5.23467C125.629 5.31811 124.216 5.70419 122.663 6.39623C122.441 6.3691 122.22 6.35634 121.998 6.35634C119.863 6.35634 117.97 7.0067 116.32 8.30742C114.671 9.60874 113.595 11.2687 113.096 13.2887C114.482 11.5461 116.033 10.2583 117.753 9.4291C117.56 9.59462 117.117 10.0383 116.424 10.7581C115.232 11.9205 114.198 13.2138 113.325 14.639C112.451 16.0642 111.828 17.3728 111.453 18.5623C111.079 19.7525 110.893 20.8317 110.893 21.7999C110.893 22.7688 111.113 23.4613 111.557 23.8759C112.833 25.1488 114.926 25.0804 117.838 23.6686C119.141 24.3056 120.529 24.6228 121.998 24.6228C123.966 24.6228 125.741 24.0487 127.322 22.9003C128.902 21.7532 130.011 20.2792 130.65 18.48H125.698C125.338 19.1163 124.846 19.6209 124.223 19.995C123.599 20.3679 122.904 20.5532 122.142 20.5532C121.379 20.5532 120.687 20.3679 120.063 19.995C119.439 19.6215 118.947 19.1171 118.588 18.48C118.281 17.8719 118.128 17.2331 118.128 16.5688V16.5289H126.155H131.065C131.092 16.2236 131.107 15.8797 131.107 15.4922C131.107 13.8598 130.705 12.3368 129.901 10.923C130.76 8.62623 130.662 6.9361 129.608 5.85662C129.147 5.42086 128.401 5.2094 127.367 5.21868ZM128.053 6.34571C128.684 6.34996 129.175 6.53565 129.526 6.89859C130.219 7.59123 130.247 8.79243 129.608 10.5083C128.555 8.90301 127.14 7.7428 125.366 7.02355C126.441 6.56788 127.338 6.34077 128.053 6.34571ZM121.977 10.5083C122.989 10.5083 123.87 10.8635 124.619 11.5689C125.367 12.2748 125.767 13.1239 125.823 14.1207H118.128C118.184 13.1239 118.585 12.2748 119.335 11.5689C120.083 10.8635 120.964 10.5083 121.977 10.5083ZM113.346 18.5623C114.095 20.6113 115.399 22.2017 117.256 23.3362C115.12 24.3045 113.651 24.3889 112.846 23.5862C111.932 22.6729 112.098 20.9981 113.346 18.5623Z" fill="white"/>
</g>
<path d="M15 0C6.71556 0 0 6.71555 0 15C0 23.2844 6.71556 30 15 30C23.2844 30 30 23.2844 30 15C30 6.71555 23.2844 0 15 0ZM23.0615 20.6923C22.4214 21.0926 19.8201 21.2119 19.1903 20.7543C18.8449 20.5035 18.529 20.1896 18.2291 19.8906C18.0192 19.6817 17.781 19.5803 17.6006 19.3534C17.4534 19.1679 17.3524 18.9489 17.1974 18.7656C16.9358 18.4582 16.5331 18.1966 16.2147 18.5722C15.7351 19.1373 16.2901 20.2471 15.6506 20.6692C15.4361 20.8109 15.2197 20.8518 14.9516 20.8317L14.3579 20.8586C14.0092 20.8655 13.4568 20.8687 13.06 20.7972C12.6174 20.7173 12.2518 20.4755 11.8515 20.2981C11.0917 19.9611 10.3681 19.5019 9.81727 18.866C8.31824 17.134 6.30481 14.7521 5.52264 12.5745C5.36178 12.1271 4.93674 11.2409 5.33969 10.8571C5.88757 10.4591 8.57658 10.3469 8.9961 10.9624C9.16638 11.2126 9.27394 11.5785 9.3945 11.8622C9.54463 12.2158 9.62587 12.5489 9.86049 12.8618C10.0681 13.1393 10.2212 13.4184 10.3817 13.7226C10.5621 14.0641 10.7323 14.3917 10.9517 14.7059C11.1005 14.9197 11.494 15.3451 11.7426 15.3766C12.3497 15.4543 12.312 13.9793 12.2668 13.6193C12.2236 13.2722 12.2125 12.904 12.2239 12.5521C12.2336 12.2518 12.2606 11.8287 12.0829 11.5837C11.793 11.184 11.1473 11.483 11.0969 10.9458C11.2035 10.7934 11.1811 10.6583 11.8931 10.4236C12.454 10.2394 12.8163 10.2452 13.1861 10.2748C13.94 10.3352 14.7394 10.1312 15.4673 10.3755C16.1627 10.6098 16.0551 11.598 16.0317 12.1901C16.0002 12.9983 16.034 13.7873 16.0317 14.6078C16.0308 14.9812 16.0158 15.3448 16.4714 15.3142C16.8984 15.286 16.9419 14.9266 17.1457 14.6302C17.4291 14.2169 17.6893 13.7977 17.9779 13.3859C18.3669 12.8293 18.4845 12.2037 18.8507 11.6334C18.9817 11.4297 19.0945 10.9956 19.2963 10.8344C19.449 10.7119 19.7392 10.7759 19.9241 10.7759H20.3637C20.7001 10.7759 21.0432 10.7733 21.389 10.7853C21.8868 10.8025 22.4444 10.6881 22.938 10.758C25.0681 11.0586 20.2607 15.6122 20.5109 16.4253C20.6838 16.9868 21.7805 17.6143 22.1763 18.0741C22.7018 18.6866 24.3194 19.9042 23.0615 20.6923Z" fill="#2E3444"/>
<defs>
<clipPath id="clip0_156_2">
<rect width="30" height="30" fill="white" transform="translate(106)"/>
</clipPath>
</defs>
</svg>
