<svg width="160" height="40" viewBox="0 0 160 40" fill="none" xmlns="http://www.w3.org/2000/svg">
<path d="M20 40C31.0457 40 40 31.0457 40 20C40 8.9543 31.0457 0 20 0C8.9543 0 0 8.9543 0 20C0 31.0457 8.9543 40 20 40Z" fill="#E45128"/>
<path d="M30.067 13.3077C29.4673 13.4908 28.8419 13.6481 28.2155 13.8047C23.7711 14.7474 17.8451 12.1885 15.2862 16.3636C13.1521 19.6834 12.4783 23.8377 10.0505 26.806L23.018 39.7734C31.6484 38.4672 38.469 31.6456 39.7739 23.0148L30.067 13.3077Z" fill="#E45128"/>
<path d="M26.6913 11.901H13.3086C10.683 11.901 8.55457 14.0295 8.55457 16.6551V23.3451C8.55457 25.9707 10.6831 28.0991 13.3086 28.0991H26.6913C29.3169 28.0991 31.4453 25.9706 31.4453 23.3451V16.6551C31.4453 14.0295 29.3168 11.901 26.6913 11.901ZM23.476 20.3255L17.2167 23.3108C17.0498 23.3905 16.8571 23.269 16.8571 23.0842V16.9269C16.8571 16.7394 17.0549 16.6179 17.2219 16.7026L23.4813 19.8746C23.6677 19.9689 23.6643 20.2358 23.476 20.3255Z" fill="white"/>
<path d="M26.6912 11.901H19.8652V18.042L23.4814 19.8744C23.6677 19.9688 23.6643 20.2357 23.476 20.3255L19.8652 22.0476V28.0991H26.6912C29.3169 28.0991 31.4453 25.9706 31.4453 23.3451V16.6551C31.4453 14.0295 29.3168 11.901 26.6912 11.901Z" fill="white"/>
<path d="M140 40C151.046 40 160 31.0457 160 20C160 8.9543 151.046 0 140 0C128.954 0 120 8.9543 120 20C120 31.0457 128.954 40 140 40Z" fill="#E45128"/>
<path d="M152.407 14.0172C152.586 13.4312 152.407 13 151.548 13H148.705C147.981 13 147.648 13.3703 147.47 13.7828C147.47 13.7828 146.022 17.2094 143.975 19.4312C143.314 20.0734 143.01 20.2797 142.648 20.2797C142.469 20.2797 142.194 20.0734 142.194 19.4875V14.0172C142.194 13.3141 141.992 13 141.393 13H136.924C136.47 13 136.2 13.3281 136.2 13.6328C136.2 14.2984 137.223 14.4531 137.329 16.3281V20.3969C137.329 21.2875 137.165 21.4516 136.803 21.4516C135.838 21.4516 133.492 18.0109 132.102 14.0734C131.822 13.3094 131.547 13 130.818 13H127.975C127.164 13 127 13.3703 127 13.7828C127 14.5141 127.965 18.1469 131.494 22.9469C133.844 26.2234 137.155 28 140.167 28C141.977 28 142.199 27.6063 142.199 26.9266C142.199 23.7953 142.035 23.5 142.942 23.5C143.362 23.5 144.086 23.7063 145.776 25.2859C147.706 27.1609 148.025 28 149.106 28H151.949C152.76 28 153.17 27.6062 152.934 26.8281C152.393 25.1922 148.739 21.8266 148.575 21.6016C148.155 21.0766 148.276 20.8422 148.575 20.3734C148.58 20.3688 152.05 15.625 152.407 14.0172Z" fill="white"/>
<path d="M80 40C91.0457 40 100 31.0457 100 20C100 8.9543 91.0457 0 80 0C68.9543 0 60 8.9543 60 20C60 31.0457 68.9543 40 80 40Z" fill="#E45128"/>
<path d="M80 8.96002C73.9127 8.96002 68.96 13.9127 68.96 20C68.96 21.9008 69.4511 23.7699 70.3823 25.4192L68.9778 30.4304C68.9317 30.5951 68.9764 30.7717 69.0954 30.8941C69.1871 30.9887 69.3119 31.04 69.44 31.04C69.4784 31.04 69.5173 31.0352 69.5552 31.0261L74.7853 29.7306C76.3823 30.5879 78.1808 31.04 80 31.04C86.0874 31.04 91.04 26.0874 91.04 20C91.04 13.9127 86.0874 8.96002 80 8.96002ZM85.5536 23.8957C85.3175 24.5495 84.1847 25.1461 83.6404 25.2263C83.1517 25.2978 82.5335 25.3285 81.8548 25.1154C81.4434 24.9858 80.9154 24.8139 80.2391 24.5255C77.396 23.313 75.5394 20.4863 75.3973 20.2995C75.2557 20.1128 74.24 18.7823 74.24 17.4051C74.24 16.028 74.972 15.3507 75.2322 15.0704C75.4924 14.7901 75.7991 14.72 75.9882 14.72C76.1773 14.72 76.366 14.7224 76.5316 14.7301C76.7058 14.7387 76.9396 14.6643 77.1695 15.2106C77.4056 15.7712 77.9725 17.1483 78.0426 17.289C78.1136 17.4291 78.1607 17.5928 78.0666 17.7795C77.9725 17.9663 77.9255 18.0829 77.7834 18.2466C77.6413 18.4103 77.4858 18.6114 77.3581 18.7371C77.216 18.8768 77.0687 19.028 77.2338 19.3083C77.3989 19.5887 77.9677 20.505 78.8106 21.2471C79.893 22.2003 80.8064 22.496 81.0896 22.6362C81.3728 22.7763 81.5384 22.7528 81.7036 22.5661C81.8687 22.3789 82.412 21.7487 82.6007 21.4688C82.7893 21.189 82.9784 21.2351 83.2386 21.3287C83.4988 21.4218 84.8922 22.0986 85.1754 22.2387C85.4586 22.3789 85.6477 22.449 85.7188 22.5656C85.7898 22.6818 85.7898 23.2424 85.5536 23.8957Z" fill="white"/>
</svg>
