<svg width="30" height="30" viewBox="0 0 30 30" fill="none" xmlns="http://www.w3.org/2000/svg">
<g clip-path="url(#clip0_129_49)">
<path d="M29.1835 22.017L24.9969 17.8304C23.5017 16.3352 20.9598 16.9333 20.3618 18.877C19.9132 20.2228 18.418 20.9704 17.0723 20.6713C14.0819 19.9237 10.0448 16.0361 9.2972 12.8962C8.84864 11.5504 9.74577 10.0552 11.0915 9.60673C13.0352 9.00864 13.6333 6.46679 12.1381 4.97158L7.95152 0.784986C6.75535 -0.261662 4.96109 -0.261662 3.91445 0.784986L1.07355 3.62589C-1.76735 6.61631 1.37259 14.5409 8.40008 21.5684C15.4276 28.5959 23.3522 31.8854 26.3426 28.8949L29.1835 26.054C30.2302 24.8579 30.2302 23.0636 29.1835 22.017Z" fill="#E45128"/>
</g>
<defs>
<clipPath id="clip0_129_49">
<rect width="30" height="30" fill="white"/>
</clipPath>
</defs>
</svg>
